<?xml version="1.0" encoding="UTF-8"?>
<svg id="Layer_1" data-name="Layer 1" xmlns="http://www.w3.org/2000/svg" viewBox="158 356 764 368">
  <defs>
    <style>
      .cls-1 {
        fill: #ff2b78;
      }
    </style>
  </defs>
  <polygon class="cls-1" points="249.01 648.37 270.27 648.37 248.75 710.44 232 710.44 220.7 672.16 209.94 710.44 193.19 710.44 171 648.37 192.26 648.37 202.5 683.86 212.73 648.37 228.54 648.37 238.78 683.86 249.01 648.37"/>
  <path class="cls-1" d="M317.99,673.63c-.26-6.12-5.71-10.24-12.76-10.24-5.85,0-11.56,2.79-13.56,10.24h26.31ZM337.26,685.19h-45.45c1.86,5.98,7.04,9.7,14.48,9.7,5.85,0,11.83-2.66,15.68-6.38l10.1,12.76c-6.11,6.64-16.75,10.76-27.11,10.76-19.67,0-33.49-13.56-33.49-32.43,0-20.2,15.55-32.83,33.36-32.83s32.69,12.49,32.69,31.37c0,1.73-.13,3.99-.26,7.04"/>
  <path class="cls-1" d="M395.73,679.34c0-7.84-6.65-14.35-14.35-14.35s-14.35,6.38-14.35,14.35,6.78,14.48,14.35,14.48,14.35-6.64,14.35-14.48M415.67,679.34c0,20.07-14.62,32.69-30.17,32.69-6.38,0-14.62-2.52-19.14-8.51v6.91h-19.67v-86.18h19.67v30.89c4.52-5.85,12.76-8.37,19.14-8.37,15.55,0,30.17,12.49,30.17,32.56"/>
  <path class="cls-1" d="M468.97,679.47c0-8.51-6.11-14.48-13.69-14.48s-13.69,5.98-13.69,14.48,6.11,14.35,13.69,14.35,13.69-5.85,13.69-14.35M421.65,679.47c0-19.67,15.95-32.69,33.62-32.69s33.76,13.03,33.76,32.69-16.08,32.56-33.76,32.56-33.62-13.02-33.62-32.56"/>
  <path class="cls-1" d="M542.19,679.47c0-8.51-6.11-14.48-13.69-14.48s-13.69,5.98-13.69,14.48,6.11,14.35,13.69,14.35,13.69-5.85,13.69-14.35M494.88,679.47c0-19.67,15.95-32.69,33.62-32.69s33.76,13.03,33.76,32.69-16.08,32.56-33.76,32.56-33.62-13.02-33.62-32.56"/>
  <polygon class="cls-1" points="634.43 710.44 610.5 710.44 591.37 685.19 591.37 710.44 571.7 710.44 571.7 624.26 591.37 624.26 591.37 665.79 604.66 648.38 629.38 648.38 605.99 675.88 634.43 710.44"/>
  <path class="cls-1" d="M635.76,699.81c0-6.65,5.45-11.56,11.96-11.56s12.22,4.92,12.22,11.56-5.58,11.83-12.22,11.83-11.96-4.92-11.96-11.83"/>
  <path class="cls-1" d="M666.86,679.21c0-19.67,16.21-32.43,34.29-32.43,11.96,0,21.13,5.85,27.11,14.62l-15.28,9.57c-2.39-3.72-7.44-5.98-11.7-5.98-9.03,0-14.35,6.51-14.35,14.22s5.32,14.62,14.35,14.62c4.25,0,9.31-2.26,11.7-5.98l15.28,9.57c-5.98,8.77-15.15,14.62-27.11,14.62-18.08,0-34.29-13.15-34.29-32.83"/>
  <path class="cls-1" d="M779.56,679.47c0-8.51-6.11-14.48-13.69-14.48s-13.69,5.98-13.69,14.48,6.11,14.35,13.69,14.35,13.69-5.85,13.69-14.35M732.24,679.47c0-19.67,15.95-32.69,33.62-32.69s33.76,13.03,33.76,32.69-16.08,32.56-33.76,32.56-33.62-13.02-33.62-32.56"/>
  <path class="cls-1" d="M909,677.08v33.36h-19.67v-32.83c0-9.57-4.78-12.62-9.83-12.62-6.11,0-10.63,4.25-10.63,15.15v30.3h-19.67v-32.43c0-9.57-4.78-13.02-9.7-13.02-5.32,0-10.77,2.66-10.77,13.02v32.43h-19.67v-62.06h19.67v9.83c2.39-7.84,10.9-11.43,16.75-11.43,9.17,0,15.95,4.39,19.67,11.83,4.25-8.24,13.82-11.83,20.33-11.83,15.55,0,23.52,11.3,23.52,30.3"/>
  <path class="cls-1" d="M630.29,464.37l-20.46,11.81c-2.29,1.32-2.29,4.63,0,5.95l20.46,11.82,23.9,13.8c1.06.61,1.72,1.75,1.72,2.98v53.14c0,1.23-.66,2.36-1.72,2.97l-39.68,22.92c-.52.3-1.12.46-1.72.46h-185.24c-1.9,0-3.44-1.54-3.44-3.44v-215.24c0-1.9,1.54-3.44,3.44-3.44h185.24c.6,0,1.2.16,1.72.46l39.68,22.91c1.06.61,1.72,1.75,1.72,2.98v53.14c0,1.23-.66,2.36-1.72,2.97l-23.9,13.8Z"/>
  <path class="cls-1" d="M878.19,460.8l-26.65,15.38c-2.29,1.32-2.29,4.63,0,5.95l26.65,15.38,30.08,17.37c1.06.61,1.72,1.75,1.72,2.98v68.91c0,1.9-1.54,3.44-3.44,3.44h-86.12c-1.23,0-2.36-.66-2.98-1.72l-11.18-19.38-9.21-15.95c-1.32-2.29-4.63-2.29-5.95,0l-20.4,35.32c-.61,1.06-1.75,1.72-2.98,1.72h-86.11c-1.9,0-3.44-1.54-3.44-3.44v-215.24c0-1.9,1.54-3.44,3.44-3.44h86.11c1.23,0,2.36.66,2.98,1.72l20.4,35.32c1.32,2.29,4.63,2.29,5.95,0l20.39-35.32c.61-1.06,1.75-1.72,2.98-1.72h86.12c1.9,0,3.44,1.54,3.44,3.44v68.92c0,1.23-.66,2.36-1.72,2.97l-30.08,17.37Z"/>
  <path class="cls-1" d="M402.31,371.53v215.25c0,1.9-1.54,3.44-3.44,3.44h-86.1c-1.23,0-2.36-.66-2.98-1.72l-20.41-35.34c-1.32-2.29-4.63-2.29-5.95,0l-20.38,35.33c-.61,1.06-1.75,1.72-2.98,1.72h-86.12c-1.9,0-3.44-1.54-3.44-3.44v-215.25c0-1.9,1.54-3.44,3.44-3.44h42.85c1.23,0,2.36.66,2.98,1.72l17.31,29.99,15.42,26.7c1.32,2.29,4.63,2.29,5.95,0l24.98-43.27c1.32-2.29,4.63-2.29,5.95,0l24.98,43.27c1.32,2.29,4.63,2.29,5.95,0l15.4-26.7,17.31-29.99c.61-1.06,1.75-1.72,2.98-1.72h42.85c1.9,0,3.44,1.54,3.44,3.44"/>
</svg>