<?xml version="1.0" encoding="utf-8"?>
<!-- Generator: Adobe Illustrator 19.0.0, SVG Export Plug-In . SVG Version: 6.00 Build 0)  -->
<svg version="1.1" id="Layer_1" xmlns="http://www.w3.org/2000/svg" xmlns:xlink="http://www.w3.org/1999/xlink" x="0px" y="0px"
	 viewBox="158 356 764 368" style="enable-background:new 0 0 1080 1080;" xml:space="preserve">
<style type="text/css">
	.st0{fill:#FFFFFF;}
</style>
<polygon id="XMLID_82_" class="st0" points="249,648.4 270.3,648.4 248.7,710.4 232,710.4 220.7,672.2 209.9,710.4 193.2,710.4 
	171,648.4 192.3,648.4 202.5,683.9 212.7,648.4 228.5,648.4 238.8,683.9 "/>
<path id="XMLID_79_" class="st0" d="M318,673.6c-0.3-6.1-5.7-10.2-12.8-10.2c-5.8,0-11.6,2.8-13.6,10.2H318z M337.3,685.2h-45.5
	c1.9,6,7,9.7,14.5,9.7c5.8,0,11.8-2.7,15.7-6.4l10.1,12.8C326,707.9,315.3,712,305,712c-19.7,0-33.5-13.6-33.5-32.4
	c0-20.2,15.5-32.8,33.4-32.8c17.8,0,32.7,12.5,32.7,31.4C337.5,679.9,337.4,682.1,337.3,685.2"/>
<path id="XMLID_76_" class="st0" d="M395.7,679.3c0-7.8-6.6-14.4-14.4-14.4c-7.4,0-14.4,6.4-14.4,14.4c0,8,6.8,14.5,14.4,14.5
	C389.1,693.8,395.7,687.2,395.7,679.3 M415.7,679.3c0,20.1-14.6,32.7-30.2,32.7c-6.4,0-14.6-2.5-19.1-8.5v6.9h-19.7v-86.2h19.7v30.9
	c4.5-5.8,12.8-8.4,19.1-8.4C401.1,646.8,415.7,659.3,415.7,679.3"/>
<path id="XMLID_73_" class="st0" d="M469,679.5c0-8.5-6.1-14.5-13.7-14.5c-7.6,0-13.7,6-13.7,14.5c0,8.5,6.1,14.4,13.7,14.4
	C462.9,693.8,469,688,469,679.5 M421.7,679.5c0-19.7,15.9-32.7,33.6-32.7c17.7,0,33.8,13,33.8,32.7C489,699,473,712,455.3,712
	C437.6,712,421.7,699,421.7,679.5"/>
<path id="XMLID_70_" class="st0" d="M542.2,679.5c0-8.5-6.1-14.5-13.7-14.5c-7.6,0-13.7,6-13.7,14.5c0,8.5,6.1,14.4,13.7,14.4
	C536.1,693.8,542.2,688,542.2,679.5 M494.9,679.5c0-19.7,15.9-32.7,33.6-32.7c17.7,0,33.8,13,33.8,32.7c0,19.5-16.1,32.6-33.8,32.6
	C510.8,712,494.9,699,494.9,679.5"/>
<polygon id="XMLID_67_" class="st0" points="634.4,710.4 610.5,710.4 591.4,685.2 591.4,710.4 571.7,710.4 571.7,624.3 591.4,624.3 
	591.4,665.8 604.7,648.4 629.4,648.4 606,675.9 "/>
<path id="XMLID_66_" class="st0" d="M635.8,699.8c0-6.6,5.4-11.6,12-11.6c6.6,0,12.2,4.9,12.2,11.6c0,6.9-5.6,11.8-12.2,11.8
	C641.2,711.6,635.8,706.7,635.8,699.8"/>
<path id="XMLID_65_" class="st0" d="M666.9,679.2c0-19.7,16.2-32.4,34.3-32.4c12,0,21.1,5.8,27.1,14.6L713,671
	c-2.4-3.7-7.4-6-11.7-6c-9,0-14.4,6.5-14.4,14.2c0,7.8,5.3,14.6,14.4,14.6c4.3,0,9.3-2.3,11.7-6l15.3,9.6
	c-6,8.8-15.1,14.6-27.1,14.6C683.1,712,666.9,698.9,666.9,679.2"/>
<path id="XMLID_62_" class="st0" d="M779.6,679.5c0-8.5-6.1-14.5-13.7-14.5c-7.6,0-13.7,6-13.7,14.5c0,8.5,6.1,14.4,13.7,14.4
	C773.4,693.8,779.6,688,779.6,679.5 M732.2,679.5c0-19.7,15.9-32.7,33.6-32.7c17.7,0,33.8,13,33.8,32.7c0,19.5-16.1,32.6-33.8,32.6
	C748.2,712,732.2,699,732.2,679.5"/>
<path id="XMLID_61_" class="st0" d="M909,677.1v33.4h-19.7v-32.8c0-9.6-4.8-12.6-9.8-12.6c-6.1,0-10.6,4.3-10.6,15.1v30.3h-19.7V678
	c0-9.6-4.8-13-9.7-13c-5.3,0-10.8,2.7-10.8,13v32.4h-19.7v-62.1h19.7v9.8c2.4-7.8,10.9-11.4,16.7-11.4c9.2,0,15.9,4.4,19.7,11.8
	c4.3-8.2,13.8-11.8,20.3-11.8C901,646.8,909,658.1,909,677.1"/>
<path id="XMLID_60_" class="st0" d="M630.3,464.4l-20.5,11.8c-2.3,1.3-2.3,4.6,0,6l20.5,11.8l23.9,13.8c1.1,0.6,1.7,1.8,1.7,3v53.1
	c0,1.2-0.7,2.4-1.7,3l-39.7,22.9c-0.5,0.3-1.1,0.5-1.7,0.5H427.5c-1.9,0-3.4-1.5-3.4-3.4V371.5c0-1.9,1.5-3.4,3.4-3.4h185.2
	c0.6,0,1.2,0.2,1.7,0.5l39.7,22.9c1.1,0.6,1.7,1.7,1.7,3v53.1c0,1.2-0.7,2.4-1.7,3L630.3,464.4z"/>
<path id="XMLID_59_" class="st0" d="M878.2,460.8l-26.7,15.4c-2.3,1.3-2.3,4.6,0,6l26.7,15.4l30.1,17.4c1.1,0.6,1.7,1.7,1.7,3v68.9
	c0,1.9-1.5,3.4-3.4,3.4h-86.1c-1.2,0-2.4-0.7-3-1.7l-11.2-19.4l-9.2-15.9c-1.3-2.3-4.6-2.3-6,0l-20.4,35.3c-0.6,1.1-1.7,1.7-3,1.7
	h-86.1c-1.9,0-3.4-1.5-3.4-3.4V371.5c0-1.9,1.5-3.4,3.4-3.4h86.1c1.2,0,2.4,0.7,3,1.7l20.4,35.3c1.3,2.3,4.6,2.3,6,0l20.4-35.3
	c0.6-1.1,1.8-1.7,3-1.7h86.1c1.9,0,3.4,1.5,3.4,3.4v68.9c0,1.2-0.7,2.4-1.7,3L878.2,460.8z"/>
<path id="XMLID_58_" class="st0" d="M402.3,371.5v215.3c0,1.9-1.5,3.4-3.4,3.4h-86.1c-1.2,0-2.4-0.7-3-1.7l-20.4-35.3
	c-1.3-2.3-4.6-2.3-6,0l-20.4,35.3c-0.6,1.1-1.7,1.7-3,1.7H174c-1.9,0-3.4-1.5-3.4-3.4V371.5c0-1.9,1.5-3.4,3.4-3.4h42.9
	c1.2,0,2.4,0.7,3,1.7l17.3,30l15.4,26.7c1.3,2.3,4.6,2.3,6,0l25-43.3c1.3-2.3,4.6-2.3,6,0l25,43.3c1.3,2.3,4.6,2.3,6,0l15.4-26.7
	l17.3-30c0.6-1.1,1.8-1.7,3-1.7h42.9C400.8,368.1,402.3,369.6,402.3,371.5"/>
</svg>
